<?xml version="1.0" encoding="UTF-8"?>
<!-- Generator: CustomSymbols v2.7.2.48 by @serious_bret https://bretlester.com/app_content/CustomSymbols/ -->
<!-- Guides: Left/Right 0.0/0.0 Cap/Base 0.184/0.192 -->
<!-- Settings: RefScale 1.0 Min/Max Stroke Scales 0.2/1.4 -->
<!DOCTYPE svg
PUBLIC "-//W3C//DTD SVG 1.1//EN"
       "http://www.w3.org/Graphics/SVG/1.1/DTD/svg11.dtd">
<svg version="1.1" xmlns="http://www.w3.org/2000/svg" xmlns:xlink="http://www.w3.org/1999/xlink" width="3300" height="2200">
<![CDATA[<svg xmlns="http://www.w3.org/2000/svg" width="24" height="24" viewBox="0 0 24 24" fill="none" stroke="currentColor" stroke-width="2" stroke-linecap="round" stroke-linejoin="round" class="lucide lucide-user-round"><circle cx="12" cy="8" r="5"/><path d="M20 21a8 8 0 0 0-16 0"/></svg>]]>
 <g id="Notes">
  <rect height="2200" id="artboard" style="fill:white;opacity:1" width="3300" x="0" y="0"/>
  <line id="" style="fill:none;stroke:black;opacity:1;stroke-width:0.5;" x1="263" x2="3036" y1="292" y2="292"/>
  <text id="reftext1" style="stroke:none;fill:black;font-family:-apple-system,&quot;SF Pro Display&quot;,&quot;SF Pro Text&quot;,Helvetica,sans-serif;font-weight:bold;" transform="matrix(1 0 0 1 263 322)">Weight/Scale Variations</text>
  <text id="reftext2" style="stroke:none;fill:black;font-family:-apple-system,&quot;SF Pro Display&quot;,&quot;SF Pro Text&quot;,Helvetica,sans-serif;text-anchor:middle;" transform="matrix(1 0 0 1 559.711 322)">Ultralight</text>
  <text style="stroke:none;fill:black;font-family:-apple-system,&quot;SF Pro Display&quot;,&quot;SF Pro Text&quot;,Helvetica,sans-serif;text-anchor:middle;" transform="matrix(1 0 0 1 856.422 322)">Thin</text>
  <text style="stroke:none;fill:black;font-family:-apple-system,&quot;SF Pro Display&quot;,&quot;SF Pro Text&quot;,Helvetica,sans-serif;text-anchor:middle;" transform="matrix(1 0 0 1 1153.13 322)">Light</text>
  <text style="stroke:none;fill:black;font-family:-apple-system,&quot;SF Pro Display&quot;,&quot;SF Pro Text&quot;,Helvetica,sans-serif;text-anchor:middle;" transform="matrix(1 0 0 1 1449.84 322)">Regular</text>
  <text style="stroke:none;fill:black;font-family:-apple-system,&quot;SF Pro Display&quot;,&quot;SF Pro Text&quot;,Helvetica,sans-serif;text-anchor:middle;" transform="matrix(1 0 0 1 1746.56 322)">Medium</text>
  <text style="stroke:none;fill:black;font-family:-apple-system,&quot;SF Pro Display&quot;,&quot;SF Pro Text&quot;,Helvetica,sans-serif;text-anchor:middle;" transform="matrix(1 0 0 1 2043.27 322)">Semibold</text>
  <text style="stroke:none;fill:black;font-family:-apple-system,&quot;SF Pro Display&quot;,&quot;SF Pro Text&quot;,Helvetica,sans-serif;text-anchor:middle;" transform="matrix(1 0 0 1 2339.98 322)">Bold</text>
  <text style="stroke:none;fill:black;font-family:-apple-system,&quot;SF Pro Display&quot;,&quot;SF Pro Text&quot;,Helvetica,sans-serif;text-anchor:middle;" transform="matrix(1 0 0 1 2636.69 322)">Heavy</text>
  <text style="stroke:none;fill:black;font-family:-apple-system,&quot;SF Pro Display&quot;,&quot;SF Pro Text&quot;,Helvetica,sans-serif;text-anchor:middle;" transform="matrix(1 0 0 1 2933.4 322)">Black</text>
  <line id="" style="fill:none;stroke:black;opacity:1;stroke-width:0.5;" x1="263" x2="3036" y1="1903" y2="1903"/>
  <g id="" transform="matrix(1 0 0 1 263 1933)">
   <path d="M9.24805 0.830078C13.5547 0.830078 17.1387-2.74414 17.1387-7.05078C17.1387-11.3574 13.5449-14.9316 9.23828-14.9316C4.94141-14.9316 1.36719-11.3574 1.36719-7.05078C1.36719-2.74414 4.95117 0.830078 9.24805 0.830078ZM9.24805-0.654297C5.70312-0.654297 2.87109-3.49609 2.87109-7.05078C2.87109-10.6055 5.69336-13.4473 9.23828-13.4473C12.793-13.4473 15.6348-10.6055 15.6445-7.05078C15.6543-3.49609 12.8027-0.654297 9.24805-0.654297ZM6.39648-6.31836L8.50586-6.31836L8.50586-4.19922C8.50586-3.75977 8.79883-3.45703 9.22852-3.45703C9.67773-3.45703 9.9707-3.75977 9.9707-4.19922L9.9707-6.31836L12.0996-6.31836C12.5391-6.31836 12.8418-6.61133 12.8418-7.04102C12.8418-7.48047 12.5391-7.7832 12.0996-7.7832L9.9707-7.7832L9.9707-9.89258C9.9707-10.3418 9.67773-10.6445 9.22852-10.6445C8.79883-10.6445 8.50586-10.3418 8.50586-9.89258L8.50586-7.7832L6.39648-7.7832C5.94727-7.7832 5.64453-7.48047 5.64453-7.04102C5.64453-6.61133 5.94727-6.31836 6.39648-6.31836Z"/>
  </g>
  <g id="" transform="matrix(1 0 0 1 281.506 1933)">
   <path d="M11.709 2.91016C17.1582 2.91016 21.6699-1.61133 21.6699-7.05078C21.6699-12.5 17.1484-17.0117 11.6992-17.0117C6.25977-17.0117 1.74805-12.5 1.74805-7.05078C1.74805-1.61133 6.26953 2.91016 11.709 2.91016ZM11.709 1.25C7.09961 1.25 3.41797-2.44141 3.41797-7.05078C3.41797-11.6602 7.08984-15.3516 11.6992-15.3516C16.3086-15.3516 20-11.6602 20.0098-7.05078C20.0195-2.44141 16.3184 1.25 11.709 1.25ZM7.98828-6.23047L10.8789-6.23047L10.8789-3.32031C10.8789-2.83203 11.2109-2.5 11.6895-2.5C12.1777-2.5 12.5195-2.83203 12.5195-3.32031L12.5195-6.23047L15.4297-6.23047C15.918-6.23047 16.25-6.5625 16.25-7.04102C16.25-7.5293 15.918-7.87109 15.4297-7.87109L12.5195-7.87109L12.5195-10.7617C12.5195-11.2695 12.1777-11.6016 11.6895-11.6016C11.2109-11.6016 10.8789-11.2598 10.8789-10.7617L10.8789-7.87109L7.98828-7.87109C7.48047-7.87109 7.14844-7.5293 7.14844-7.04102C7.14844-6.5625 7.49023-6.23047 7.98828-6.23047Z"/>
  </g>
  <g id="" transform="matrix(1 0 0 1 304.924 1933)">
   <path d="M14.9707 5.66406C21.9336 5.66406 27.6953-0.0976562 27.6953-7.05078C27.6953-14.0137 21.9238-19.7754 14.9609-19.7754C8.00781-19.7754 2.25586-14.0137 2.25586-7.05078C2.25586-0.0976562 8.01758 5.66406 14.9707 5.66406ZM14.9707 3.84766C8.93555 3.84766 4.08203-1.01562 4.08203-7.05078C4.08203-13.0957 8.92578-17.9492 14.9609-17.9492C21.0059-17.9492 25.8594-13.0957 25.8691-7.05078C25.8789-1.01562 21.0156 3.84766 14.9707 3.84766ZM10.0586-6.14258L14.0625-6.14258L14.0625-2.12891C14.0625-1.5918 14.4336-1.2207 14.9512-1.2207C15.4883-1.2207 15.8594-1.5918 15.8594-2.12891L15.8594-6.14258L19.8828-6.14258C20.4102-6.14258 20.791-6.51367 20.791-7.03125C20.791-7.56836 20.4199-7.94922 19.8828-7.94922L15.8594-7.94922L15.8594-11.9531C15.8594-12.5098 15.4883-12.8809 14.9512-12.8809C14.4336-12.8809 14.0625-12.5 14.0625-11.9531L14.0625-7.94922L10.0586-7.94922C9.50195-7.94922 9.13086-7.56836 9.13086-7.03125C9.13086-6.51367 9.51172-6.14258 10.0586-6.14258Z"/>
  </g>
  <text style="stroke:none;fill:black;font-family:-apple-system,&quot;SF Pro Display&quot;,&quot;SF Pro Text&quot;,Helvetica,sans-serif;font-weight:bold;" transform="matrix(1 0 0 1 263 1953)">Design Variations</text>
  <text style="stroke:none;fill:black;font-family:-apple-system,&quot;SF Pro Display&quot;,&quot;SF Pro Text&quot;,Helvetica,sans-serif;" transform="matrix(1 0 0 1 263 1971)">Symbols are supported in up to nine weights and three scales.</text>
  <text style="stroke:none;fill:black;font-family:-apple-system,&quot;SF Pro Display&quot;,&quot;SF Pro Text&quot;,Helvetica,sans-serif;" transform="matrix(1 0 0 1 263 1989)">For optimal layout with text and other symbols, vertically align</text>
  <text style="stroke:none;fill:black;font-family:-apple-system,&quot;SF Pro Display&quot;,&quot;SF Pro Text&quot;,Helvetica,sans-serif;" transform="matrix(1 0 0 1 263 2007)">symbols with the adjacent text.</text>
  <line id="" style="fill:none;stroke:#00AEEF;stroke-width:0.5;opacity:1.0;" x1="776" x2="776" y1="1919" y2="1933"/>
  <g id="" transform="matrix(1 0 0 1 776 1933)">
   <path d="M3.31055 0.126953C3.82812 0.126953 4.08203-0.0683594 4.26758-0.605469L5.52734-4.0625L11.2891-4.0625L12.5488-0.605469C12.7344-0.0683594 12.9883 0.126953 13.4961 0.126953C14.0137 0.126953 14.3457-0.185547 14.3457-0.673828C14.3457-0.839844 14.3164-0.986328 14.2383-1.20117L9.6582-13.3887C9.43359-13.9941 9.0332-14.2871 8.4082-14.2871C7.80273-14.2871 7.39258-13.9941 7.17773-13.3984L2.59766-1.19141C2.51953-0.976562 2.49023-0.830078 2.49023-0.664062C2.49023-0.175781 2.80273 0.126953 3.31055 0.126953ZM6.00586-5.53711L8.37891-12.1094L8.42773-12.1094L10.8008-5.53711Z"/>
  </g>
  <line id="" style="fill:none;stroke:#00AEEF;stroke-width:0.5;opacity:1.0;" x1="792.836" x2="792.836" y1="1919" y2="1933"/>
  <text style="stroke:none;fill:black;font-family:-apple-system,&quot;SF Pro Display&quot;,&quot;SF Pro Text&quot;,Helvetica,sans-serif;font-weight:bold;" transform="matrix(1 0 0 1 776 1953)">Margins</text>
  <text style="stroke:none;fill:black;font-family:-apple-system,&quot;SF Pro Display&quot;,&quot;SF Pro Text&quot;,Helvetica,sans-serif;" transform="matrix(1 0 0 1 776 1971)">Leading and trailing margins on the left and right side of each symbol</text>
  <text style="stroke:none;fill:black;font-family:-apple-system,&quot;SF Pro Display&quot;,&quot;SF Pro Text&quot;,Helvetica,sans-serif;" transform="matrix(1 0 0 1 776 1989)">can be adjusted by modifying the x-location of the margin guidelines.</text>
  <text style="stroke:none;fill:black;font-family:-apple-system,&quot;SF Pro Display&quot;,&quot;SF Pro Text&quot;,Helvetica,sans-serif;" transform="matrix(1 0 0 1 776 2007)">Modifications are automatically applied proportionally to all</text>
  <text style="stroke:none;fill:black;font-family:-apple-system,&quot;SF Pro Display&quot;,&quot;SF Pro Text&quot;,Helvetica,sans-serif;" transform="matrix(1 0 0 1 776 2025)">scales and weights.</text>
  <g id="" transform="matrix(1 0 0 1 1289 1933)">
   <path d="M2.8418 1.86523L4.54102 3.57422C5.40039 4.44336 6.38672 4.38477 7.31445 3.35938L17.4902-7.85156C17.7539-7.76367 18.0273-7.7832 18.3398-7.8418L19.4043-8.03711L20.0684-7.36328L20.0293-6.80664C19.9902-6.30859 20.1172-5.92773 20.6055-5.44922L21.3672-4.70703C21.8457-4.22852 22.4609-4.19922 22.9297-4.66797L25.8398-7.58789C26.3086-8.05664 26.2891-8.65234 25.8105-9.13086L25.0391-9.89258C24.5605-10.3711 24.1895-10.5273 23.7109-10.4883L23.1348-10.4395L22.4902-11.0742L22.7344-12.1973C22.8613-12.7637 22.7051-13.2031 22.1191-13.7891L19.9219-15.9766C16.582-19.2969 12.1484-19.2188 9.25781-16.3281C8.83789-15.918 8.80859-15.3418 9.04297-14.9512C9.27734-14.5898 9.73633-14.3555 10.3809-14.5215C11.8457-14.8633 13.3691-14.9219 14.7949-13.9844L14.209-12.5293C14.0137-12.0508 13.9844-11.6504 14.1113-11.2891L3.04688-0.898438C2.06055 0.0195312 1.98242 0.996094 2.8418 1.86523ZM10.752-15.957C13.1836-17.7344 16.4746-17.4316 18.7012-15.2051L21.1328-12.793C21.3672-12.5586 21.4062-12.373 21.3379-12.0312L21.0156-10.5469L22.5195-9.0625L23.5059-9.12109C23.7598-9.13086 23.8379-9.11133 24.0332-8.91602L24.6094-8.33984L22.168-5.89844L21.5918-6.47461C21.3965-6.66992 21.3672-6.74805 21.377-7.01172L21.4453-7.98828L19.9512-9.47266L18.4277-9.21875C18.1055-9.15039 17.959-9.17969 17.7148-9.41406L15.7129-11.416C15.459-11.6504 15.4297-11.8164 15.5859-12.1875L16.4648-14.2773C14.9023-15.7324 12.8711-16.3574 10.8398-15.7617C10.6836-15.7227 10.625-15.8496 10.752-15.957ZM5.27344 2.30469L4.10156 1.14258C3.63281 0.683594 3.74023 0.341797 4.14062-0.0195312L14.9512-10.1953L16.416-8.71094L6.42578 2.27539C6.07422 2.67578 5.74219 2.77344 5.27344 2.30469Z"/>
  </g>
  <text style="stroke:none;fill:black;font-family:-apple-system,&quot;SF Pro Display&quot;,&quot;SF Pro Text&quot;,Helvetica,sans-serif;font-weight:bold;" transform="matrix(1 0 0 1 1289 1953)">Exporting</text>
  <text style="stroke:none;fill:black;font-family:-apple-system,&quot;SF Pro Display&quot;,&quot;SF Pro Text&quot;,Helvetica,sans-serif;" transform="matrix(1 0 0 1 1289 1971)">Symbols should be outlined when exporting to ensure the</text>
  <text style="stroke:none;fill:black;font-family:-apple-system,&quot;SF Pro Display&quot;,&quot;SF Pro Text&quot;,Helvetica,sans-serif;" transform="matrix(1 0 0 1 1289 1989)">design is preserved when submitting to Xcode.</text>
  <text id="template-version" style="stroke:none;fill:black;font-family:-apple-system,&quot;SF Pro Display&quot;,&quot;SF Pro Text&quot;,Helvetica,sans-serif;text-anchor:end;" transform="matrix(1 0 0 1 3036 1933)">Template v.2.0</text>
  <text style="stroke:none;fill:black;font-family:-apple-system,&quot;SF Pro Display&quot;,&quot;SF Pro Text&quot;,Helvetica,sans-serif;text-anchor:end;" transform="matrix(1 0 0 1 3036 1951)">Requires Xcode 12 or greater</text>
  <text style="stroke:none;fill:black;font-family:-apple-system,&quot;SF Pro Display&quot;,&quot;SF Pro Text&quot;,Helvetica,sans-serif;" transform="matrix(1 0 0 1 263 726)">Small</text>
  <text style="stroke:none;fill:black;font-family:-apple-system,&quot;SF Pro Display&quot;,&quot;SF Pro Text&quot;,Helvetica,sans-serif;" transform="matrix(1 0 0 1 263 1156)">Medium</text>
  <text style="stroke:none;fill:black;font-family:-apple-system,&quot;SF Pro Display&quot;,&quot;SF Pro Text&quot;,Helvetica,sans-serif;" transform="matrix(1 0 0 1 263 1586)">Large</text>
 </g>
 <g id="Guides">
  <g id="H-reference" style="fill:#27AAE1;stroke:none;" transform="matrix(1 0 0 1 339 696)">
   <path d="M0.976562 0L3.66211 0L12.9883-24.4629L45.752-24.4629L55.127 0L57.7637 0L30.6152-70.459L28.125-70.459ZM29.3457-67.1387L29.4434-67.1387L44.873-26.709L13.8672-26.709Z"/>
  </g>
  <line id="Baseline-S" style="fill:none;stroke:#27AAE1;opacity:1;stroke-width:0.5;" x1="263" x2="3036" y1="696" y2="696"/>
  <line id="Capline-S" style="fill:none;stroke:#27AAE1;opacity:1;stroke-width:0.5;" x1="263" x2="3036" y1="625.541" y2="625.541"/>
  <g id="H-reference" style="fill:#27AAE1;stroke:none;" transform="matrix(1 0 0 1 339 1126)">
   <path d="M0.976562 0L3.66211 0L12.9883-24.4629L45.752-24.4629L55.127 0L57.7637 0L30.6152-70.459L28.125-70.459ZM29.3457-67.1387L29.4434-67.1387L44.873-26.709L13.8672-26.709Z"/>
  </g>
  <line id="Baseline-M" style="fill:none;stroke:#27AAE1;opacity:1;stroke-width:0.5;" x1="263" x2="3036" y1="1126" y2="1126"/>
  <line id="Capline-M" style="fill:none;stroke:#27AAE1;opacity:1;stroke-width:0.5;" x1="263" x2="3036" y1="1055.54" y2="1055.54"/>
  <g id="H-reference" style="fill:#27AAE1;stroke:none;" transform="matrix(1 0 0 1 339 1556)">
   <path d="M0.976562 0L3.66211 0L12.9883-24.4629L45.752-24.4629L55.127 0L57.7637 0L30.6152-70.459L28.125-70.459ZM29.3457-67.1387L29.4434-67.1387L44.873-26.709L13.8672-26.709Z"/>
  </g>
  <line id="Baseline-L" style="fill:none;stroke:#27AAE1;opacity:1;stroke-width:0.5;" x1="263" x2="3036" y1="1556" y2="1556"/>
  <line id="Capline-L" style="fill:none;stroke:#27AAE1;opacity:1;stroke-width:0.5;" x1="263" x2="3036" y1="1485.54" y2="1485.54"/>
  <line id="left-margin" x1="1394.6716979667467" x2="1394.6716979667467" y1="1030.79" y2="1150.12" style="fill:none;stroke:#00AEEF;stroke-width:0.5;opacity:1.0;"/>
  <line id="right-margin" x1="1507.588302033253" x2="1507.588302033253" y1="1030.79" y2="1150.12" style="fill:none;stroke:#00AEEF;stroke-width:0.5;opacity:1.0;"/>
 </g>
 <g id="Symbols">
  <g id="Black-L" transform="matrix(1.0,0.0,0.0,1.0,2861.8487903771033,1448.5214595853365)">  <path stroke-linejoin="round" fill="#000000" stroke-dasharray="none" r="5" stroke="none" stroke-width="2px" stroke-miterlimit="4" fill-opacity="1" cy="8" stroke-linecap="round" stroke-opacity="1" fill-rule="nonzero" cx="12" d="M94.681,48.554C94.681,60.621,84.898,70.404,72.831,70.404C60.764,70.404,50.982,60.621,50.982,48.554C50.982,36.487,60.764,26.705,72.831,26.705C84.898,26.705,94.681,36.487,94.681,48.554ZM111.675,48.554C111.675,27.102,94.284,9.711,72.831,9.711C51.379,9.711,33.988,27.102,33.988,48.554C33.988,70.007,51.379,87.397,72.831,87.397C94.284,87.397,111.675,70.007,111.675,48.554Z"/>
  <path stroke-linecap="round" stroke-width="2px" stroke-linejoin="round" stroke-miterlimit="4" stroke-opacity="1" fill="#000000" fill-rule="nonzero" stroke="none" fill-opacity="1" stroke-dasharray="none" d="M129.882,127.455C129.882,95.946,104.34,70.404,72.831,70.404C41.323,70.404,15.78,95.946,15.78,127.455C15.78,132.147,19.584,135.952,24.277,135.952C28.97,135.952,32.774,132.147,32.774,127.455C32.774,105.332,50.708,87.397,72.831,87.397C94.954,87.397,112.888,105.332,112.888,127.455C112.888,132.147,116.693,135.952,121.385,135.952C126.078,135.952,129.882,132.147,129.882,127.455Z"/>
</g>
  <g id="Heavy-L" transform="matrix(1.0,0.0,0.0,1.0,2565.1387903771033,1448.5214595853365)">  <path cx="12" stroke-width="2px" stroke="none" stroke-dasharray="none" fill="#000000" fill-opacity="1" stroke-linejoin="round" r="5" fill-rule="nonzero" stroke-miterlimit="4" stroke-opacity="1" cy="8" stroke-linecap="round" d="M95.166,48.554C95.166,60.889,85.166,70.889,72.831,70.889C60.496,70.889,50.496,60.889,50.496,48.554C50.496,36.219,60.496,26.219,72.831,26.219C85.166,26.219,95.166,36.219,95.166,48.554ZM111.189,48.554C111.189,27.37,94.016,10.196,72.831,10.196C51.647,10.196,34.473,27.37,34.473,48.554C34.473,69.739,51.647,86.912,72.831,86.912C94.016,86.912,111.189,69.739,111.189,48.554Z"/>
  <path stroke-linejoin="round" stroke-width="2px" fill-rule="nonzero" stroke-opacity="1" stroke-miterlimit="4" stroke-linecap="round" stroke-dasharray="none" stroke="none" fill="#000000" fill-opacity="1" d="M129.397,127.455C129.397,96.214,104.072,70.889,72.831,70.889C41.591,70.889,16.266,96.214,16.266,127.455C16.266,131.879,19.852,135.466,24.277,135.466C28.702,135.466,32.289,131.879,32.289,127.455C32.289,105.063,50.44,86.912,72.831,86.912C95.222,86.912,113.374,105.063,113.374,127.455C113.374,131.879,116.961,135.466,121.385,135.466C125.81,135.466,129.397,131.879,129.397,127.455Z"/>
</g>
  <g id="Bold-L" transform="matrix(1.0,0.0,0.0,1.0,2268.4287903771033,1448.5214595853365)">  <path cx="12" stroke-miterlimit="4" fill-opacity="1" stroke-dasharray="none" cy="8" stroke-linecap="round" stroke="none" stroke-linejoin="round" fill="#000000" r="5" fill-rule="nonzero" stroke-opacity="1" stroke-width="2px" d="M95.652,48.554C95.652,61.158,85.435,71.375,72.831,71.375C60.228,71.375,50.011,61.158,50.011,48.554C50.011,35.951,60.228,25.734,72.831,25.734C85.435,25.734,95.652,35.951,95.652,48.554ZM110.703,48.554C110.703,27.638,93.747,10.682,72.831,10.682C51.915,10.682,34.959,27.638,34.959,48.554C34.959,69.47,51.915,86.426,72.831,86.426C93.747,86.426,110.703,69.47,110.703,48.554Z"/>
  <path stroke-width="2px" fill-rule="nonzero" stroke-linecap="round" fill="#000000" stroke-miterlimit="4" stroke-linejoin="round" stroke-dasharray="none" stroke-opacity="1" fill-opacity="1" stroke="none" d="M128.911,127.455C128.911,96.482,103.803,71.375,72.831,71.375C41.859,71.375,16.751,96.482,16.751,127.455C16.751,131.611,20.121,134.981,24.277,134.981C28.434,134.981,31.803,131.611,31.803,127.455C31.803,104.795,50.172,86.426,72.831,86.426C95.49,86.426,113.859,104.795,113.859,127.455C113.859,131.611,117.229,134.981,121.385,134.981C125.542,134.981,128.911,131.611,128.911,127.455Z"/>
</g>
  <g id="Semibold-L" transform="matrix(1.0,0.0,0.0,1.0,1971.7187903771032,1448.5214595853365)">  <path stroke-linecap="round" fill-opacity="1" stroke-miterlimit="4" r="5" cy="8" cx="12" stroke="none" fill="#000000" stroke-dasharray="none" fill-rule="nonzero" stroke-opacity="1" stroke-linejoin="round" stroke-width="2px" d="M96.137,48.554C96.137,61.426,85.703,71.86,72.831,71.86C59.96,71.86,49.525,61.426,49.525,48.554C49.525,35.683,59.96,25.248,72.831,25.248C85.703,25.248,96.137,35.683,96.137,48.554ZM110.218,48.554C110.218,27.906,93.479,11.167,72.831,11.167C52.183,11.167,35.445,27.906,35.445,48.554C35.445,69.202,52.183,85.941,72.831,85.941C93.479,85.941,110.218,69.202,110.218,48.554Z"/>
  <path stroke="none" fill="#000000" stroke-dasharray="none" stroke-miterlimit="4" stroke-linejoin="round" fill-rule="nonzero" fill-opacity="1" stroke-opacity="1" stroke-linecap="round" stroke-width="2px" d="M128.426,127.455C128.426,96.751,103.535,71.86,72.831,71.86C42.127,71.86,17.237,96.751,17.237,127.455C17.237,131.343,20.389,134.495,24.277,134.495C28.165,134.495,31.317,131.343,31.317,127.455C31.317,104.527,49.904,85.941,72.831,85.941C95.759,85.941,114.345,104.527,114.345,127.455C114.345,131.343,117.497,134.495,121.385,134.495C125.274,134.495,128.426,131.343,128.426,127.455Z"/>
</g>
  <g id="Medium-L" transform="matrix(1.0,0.0,0.0,1.0,1675.0087903771032,1448.5214595853365)">  <path fill="#000000" stroke-width="2px" cx="12" cy="8" stroke-linejoin="round" stroke-miterlimit="4" r="5" stroke-linecap="round" stroke-opacity="1" fill-opacity="1" stroke="none" fill-rule="nonzero" stroke-dasharray="none" d="M96.623,48.554C96.623,61.694,85.971,72.346,72.831,72.346C59.692,72.346,49.04,61.694,49.04,48.554C49.04,35.414,59.692,24.763,72.831,24.763C85.971,24.763,96.623,35.414,96.623,48.554ZM109.732,48.554C109.732,28.174,93.211,11.653,72.831,11.653C52.451,11.653,35.93,28.174,35.93,48.554C35.93,68.934,52.451,85.455,72.831,85.455C93.211,85.455,109.732,68.934,109.732,48.554Z"/>
  <path fill-rule="nonzero" stroke-miterlimit="4" stroke-width="2px" stroke="none" stroke-dasharray="none" fill="#000000" stroke-linejoin="round" stroke-linecap="round" stroke-opacity="1" fill-opacity="1" d="M127.94,127.455C127.94,97.019,103.267,72.346,72.831,72.346C42.395,72.346,17.722,97.019,17.722,127.455C17.722,131.075,20.657,134.009,24.277,134.009C27.897,134.009,30.832,131.075,30.832,127.455C30.832,104.259,49.636,85.455,72.831,85.455C96.027,85.455,114.831,104.259,114.831,127.455C114.831,131.075,117.765,134.009,121.385,134.009C125.005,134.009,127.94,131.075,127.94,127.455Z"/>
</g>
  <g id="Regular-L" transform="matrix(1.0,0.0,0.0,1.0,1378.2987903771032,1448.5214595853365)">  <path cx="12" stroke-opacity="1" fill="#000000" stroke-miterlimit="4" r="5" stroke-width="2px" fill-opacity="1" stroke-dasharray="none" stroke-linejoin="round" stroke-linecap="round" cy="8" fill-rule="nonzero" stroke="none" d="M97.108,48.554C97.108,61.962,86.239,72.831,72.831,72.831C59.423,72.831,48.554,61.962,48.554,48.554C48.554,35.146,59.423,24.277,72.831,24.277C86.239,24.277,97.108,35.146,97.108,48.554ZM109.247,48.554C109.247,28.442,92.943,12.139,72.831,12.139C52.719,12.139,36.416,28.442,36.416,48.554C36.416,68.666,52.719,84.97,72.831,84.97C92.943,84.97,109.247,68.666,109.247,48.554Z"/>
  <path fill="#000000" stroke-linejoin="round" stroke-opacity="1" stroke-miterlimit="4" stroke="none" stroke-dasharray="none" stroke-linecap="round" fill-opacity="1" stroke-width="2px" fill-rule="nonzero" d="M127.455,127.455C127.455,97.287,102.999,72.831,72.831,72.831C42.664,72.831,18.208,97.287,18.208,127.455C18.208,130.807,20.925,133.524,24.277,133.524C27.629,133.524,30.346,130.807,30.346,127.455C30.346,103.991,49.367,84.97,72.831,84.97C96.295,84.97,115.316,103.991,115.316,127.455C115.316,130.807,118.033,133.524,121.385,133.524C124.737,133.524,127.455,130.807,127.455,127.455Z"/>
</g>
  <g id="Light-L" transform="matrix(1.0,0.0,0.0,1.0,1081.5887903771034,1448.5214595853365)">  <path r="5" stroke="none" stroke-opacity="1" stroke-linecap="round" cy="8" fill-rule="nonzero" stroke-dasharray="none" cx="12" stroke-miterlimit="4" stroke-linejoin="round" fill="#000000" stroke-width="2px" fill-opacity="1" d="M98.727,48.554C98.727,62.856,87.133,74.45,72.831,74.45C58.529,74.45,46.936,62.856,46.936,48.554C46.936,34.252,58.529,22.659,72.831,22.659C87.133,22.659,98.727,34.252,98.727,48.554ZM107.628,48.554C107.628,29.336,92.049,13.757,72.831,13.757C53.613,13.757,38.034,29.336,38.034,48.554C38.034,67.772,53.613,83.351,72.831,83.351C92.049,83.351,107.628,67.772,107.628,48.554Z"/>
  <path fill-opacity="1" fill="#000000" stroke-linecap="round" stroke-linejoin="round" stroke-dasharray="none" stroke-miterlimit="4" stroke-opacity="1" fill-rule="nonzero" stroke-width="2px" stroke="none" d="M125.836,127.455C125.836,98.181,102.105,74.45,72.831,74.45C43.557,74.45,19.826,98.181,19.826,127.455C19.826,129.913,21.819,131.905,24.277,131.905C26.735,131.905,28.728,129.913,28.728,127.455C28.728,103.097,48.474,83.351,72.831,83.351C97.189,83.351,116.935,103.097,116.935,127.455C116.935,129.913,118.927,131.905,121.385,131.905C123.843,131.905,125.836,129.913,125.836,127.455Z"/>
</g>
  <g id="Thin-L" transform="matrix(1.0,0.0,0.0,1.0,784.8787903771034,1448.5214595853365)">  <path fill-rule="nonzero" stroke-miterlimit="4" stroke-linejoin="round" fill-opacity="1" stroke="none" cy="8" cx="12" stroke-dasharray="none" stroke-linecap="round" r="5" stroke-opacity="1" stroke-width="2px" fill="#000000" d="M100.345,48.554C100.345,63.75,88.027,76.068,72.831,76.068C57.636,76.068,45.317,63.75,45.317,48.554C45.317,33.359,57.636,21.04,72.831,21.04C88.027,21.04,100.345,33.359,100.345,48.554ZM106.01,48.554C106.01,30.23,91.155,15.375,72.831,15.375C54.507,15.375,39.653,30.23,39.653,48.554C39.653,66.878,54.507,81.733,72.831,81.733C91.155,81.733,106.01,66.878,106.01,48.554Z"/>
  <path stroke="none" stroke-linecap="round" stroke-miterlimit="4" stroke-opacity="1" stroke-linejoin="round" fill-rule="nonzero" fill-opacity="1" stroke-width="2px" fill="#000000" stroke-dasharray="none" d="M124.218,127.455C124.218,99.075,101.211,76.068,72.831,76.068C44.451,76.068,21.445,99.075,21.445,127.455C21.445,129.019,22.713,130.287,24.277,130.287C25.841,130.287,27.109,129.019,27.109,127.455C27.109,102.203,47.58,81.733,72.831,81.733C98.083,81.733,118.553,102.203,118.553,127.455C118.553,129.019,119.821,130.287,121.385,130.287C122.95,130.287,124.218,129.019,124.218,127.455Z"/>
</g>
  <g id="Ultralight-L" transform="matrix(1.0,0.0,0.0,1.0,488.1687903771034,1448.5214595853365)">  <path stroke="none" stroke-linecap="round" stroke-dasharray="none" stroke-miterlimit="4" cx="12" r="5" cy="8" stroke-width="2px" stroke-opacity="1" stroke-linejoin="round" fill-opacity="1" fill="#000000" fill-rule="nonzero" d="M101.964,48.554C101.964,64.644,88.921,77.687,72.831,77.687C56.742,77.687,43.699,64.644,43.699,48.554C43.699,32.465,56.742,19.422,72.831,19.422C88.921,19.422,101.964,32.465,101.964,48.554ZM104.391,48.554C104.391,31.124,90.261,16.994,72.831,16.994C55.401,16.994,41.271,31.124,41.271,48.554C41.271,65.984,55.401,80.114,72.831,80.114C90.261,80.114,104.391,65.984,104.391,48.554Z"/>
  <path stroke-opacity="1" stroke="none" fill-rule="nonzero" stroke-miterlimit="4" fill="#000000" stroke-width="2px" stroke-dasharray="none" stroke-linecap="round" fill-opacity="1" stroke-linejoin="round" d="M122.599,127.455C122.599,99.969,100.317,77.687,72.831,77.687C45.345,77.687,23.063,99.969,23.063,127.455C23.063,128.125,23.607,128.668,24.277,128.668C24.947,128.668,25.491,128.125,25.491,127.455C25.491,101.309,46.686,80.114,72.831,80.114C98.977,80.114,120.171,101.309,120.171,127.455C120.171,128.125,120.715,128.668,121.385,128.668C122.056,128.668,122.599,128.125,122.599,127.455Z"/>
</g>
  <g id="Black-M" transform="matrix(1.0,0.0,0.0,1.0,2878.2216979667464,1034.7633839142627)">  <path stroke-linejoin="round" fill="#000000" stroke-dasharray="none" r="5" stroke="none" stroke-width="2px" stroke-miterlimit="4" fill-opacity="1" cy="8" stroke-linecap="round" stroke-opacity="1" fill-rule="nonzero" cx="12" d="M73.396,37.639C73.396,46.993,65.813,54.576,56.458,54.576C47.104,54.576,39.521,46.993,39.521,37.639C39.521,28.285,47.104,20.701,56.458,20.701C65.813,20.701,73.396,28.285,73.396,37.639ZM86.569,37.639C86.569,21.009,73.088,7.528,56.458,7.528C39.828,7.528,26.347,21.009,26.347,37.639C26.347,54.269,39.828,67.75,56.458,67.75C73.088,67.75,86.569,54.269,86.569,37.639Z"/>
  <path stroke-linecap="round" stroke-width="2px" stroke-linejoin="round" stroke-miterlimit="4" stroke-opacity="1" fill="#000000" fill-rule="nonzero" stroke="none" fill-opacity="1" stroke-dasharray="none" d="M100.684,98.802C100.684,74.377,80.883,54.576,56.458,54.576C32.033,54.576,12.233,74.377,12.233,98.802C12.233,102.44,15.182,105.389,18.819,105.389C22.457,105.389,25.406,102.44,25.406,98.802C25.406,81.652,39.309,67.75,56.458,67.75C73.608,67.75,87.51,81.652,87.51,98.802C87.51,102.44,90.459,105.389,94.097,105.389C97.735,105.389,100.684,102.44,100.684,98.802Z"/>
</g>
  <g id="Heavy-M" transform="matrix(1.0,0.0,0.0,1.0,2581.5116979667464,1034.7633839142627)">  <path cx="12" stroke-width="2px" stroke="none" stroke-dasharray="none" fill="#000000" fill-opacity="1" stroke-linejoin="round" r="5" fill-rule="nonzero" stroke-miterlimit="4" stroke-opacity="1" cy="8" stroke-linecap="round" d="M73.772,37.639C73.772,47.201,66.02,54.953,56.458,54.953C46.896,54.953,39.144,47.201,39.144,37.639C39.144,28.077,46.896,20.325,56.458,20.325C66.02,20.325,73.772,28.077,73.772,37.639ZM86.193,37.639C86.193,21.217,72.88,7.904,56.458,7.904C40.036,7.904,26.724,21.217,26.724,37.639C26.724,54.061,40.036,67.374,56.458,67.374C72.88,67.374,86.193,54.061,86.193,37.639Z"/>
  <path stroke-linejoin="round" stroke-width="2px" fill-rule="nonzero" stroke-opacity="1" stroke-miterlimit="4" stroke-linecap="round" stroke-dasharray="none" stroke="none" fill="#000000" fill-opacity="1" d="M100.308,98.802C100.308,74.585,80.676,54.953,56.458,54.953C32.241,54.953,12.609,74.585,12.609,98.802C12.609,102.232,15.39,105.012,18.819,105.012C22.249,105.012,25.03,102.232,25.03,98.802C25.03,81.445,39.101,67.374,56.458,67.374C73.816,67.374,87.887,81.445,87.887,98.802C87.887,102.232,90.667,105.012,94.097,105.012C97.527,105.012,100.308,102.232,100.308,98.802Z"/>
</g>
  <g id="Bold-M" transform="matrix(1.0,0.0,0.0,1.0,2284.8016979667464,1034.7633839142627)">  <path cx="12" stroke-miterlimit="4" fill-opacity="1" stroke-dasharray="none" cy="8" stroke-linecap="round" stroke="none" stroke-linejoin="round" fill="#000000" r="5" fill-rule="nonzero" stroke-opacity="1" stroke-width="2px" d="M74.149,37.639C74.149,47.409,66.228,55.329,56.458,55.329C46.688,55.329,38.768,47.409,38.768,37.639C38.768,27.869,46.688,19.949,56.458,19.949C66.228,19.949,74.149,27.869,74.149,37.639ZM85.817,37.639C85.817,21.425,72.672,8.281,56.458,8.281C40.244,8.281,27.1,21.425,27.1,37.639C27.1,53.853,40.244,66.997,56.458,66.997C72.672,66.997,85.817,53.853,85.817,37.639Z"/>
  <path stroke-width="2px" fill-rule="nonzero" stroke-linecap="round" fill="#000000" stroke-miterlimit="4" stroke-linejoin="round" stroke-dasharray="none" stroke-opacity="1" fill-opacity="1" stroke="none" d="M99.931,98.802C99.931,74.793,80.468,55.329,56.458,55.329C32.449,55.329,12.985,74.793,12.985,98.802C12.985,102.024,15.597,104.636,18.819,104.636C22.041,104.636,24.653,102.024,24.653,98.802C24.653,81.237,38.893,66.997,56.458,66.997C74.024,66.997,88.263,81.237,88.263,98.802C88.263,102.024,90.875,104.636,94.097,104.636C97.319,104.636,99.931,102.024,99.931,98.802Z"/>
</g>
  <g id="Semibold-M" transform="matrix(1.0,0.0,0.0,1.0,1988.0916979667468,1034.7633839142627)">  <path stroke-linecap="round" fill-opacity="1" stroke-miterlimit="4" r="5" cy="8" cx="12" stroke="none" fill="#000000" stroke-dasharray="none" fill-rule="nonzero" stroke-opacity="1" stroke-linejoin="round" stroke-width="2px" d="M74.525,37.639C74.525,47.617,66.436,55.706,56.458,55.706C46.48,55.706,38.392,47.617,38.392,37.639C38.392,27.661,46.48,19.572,56.458,19.572C66.436,19.572,74.525,27.661,74.525,37.639ZM85.44,37.639C85.44,21.633,72.465,8.657,56.458,8.657C40.452,8.657,27.476,21.633,27.476,37.639C27.476,53.645,40.452,66.621,56.458,66.621C72.465,66.621,85.44,53.645,85.44,37.639Z"/>
  <path stroke="none" fill="#000000" stroke-dasharray="none" stroke-miterlimit="4" stroke-linejoin="round" fill-rule="nonzero" fill-opacity="1" stroke-opacity="1" stroke-linecap="round" stroke-width="2px" d="M99.555,98.802C99.555,75,80.26,55.706,56.458,55.706C32.657,55.706,13.362,75,13.362,98.802C13.362,101.816,15.805,104.26,18.819,104.26C21.834,104.26,24.277,101.816,24.277,98.802C24.277,81.029,38.685,66.621,56.458,66.621C74.232,66.621,88.64,81.029,88.64,98.802C88.64,101.816,91.083,104.26,94.097,104.26C97.111,104.26,99.555,101.816,99.555,98.802Z"/>
</g>
  <g id="Medium-M" transform="matrix(1.0,0.0,0.0,1.0,1691.3816979667467,1034.7633839142627)">  <path fill="#000000" stroke-width="2px" cx="12" cy="8" stroke-linejoin="round" stroke-miterlimit="4" r="5" stroke-linecap="round" stroke-opacity="1" fill-opacity="1" stroke="none" fill-rule="nonzero" stroke-dasharray="none" d="M74.901,37.639C74.901,47.825,66.644,56.082,56.458,56.082C46.272,56.082,38.015,47.825,38.015,37.639C38.015,27.453,46.272,19.196,56.458,19.196C66.644,19.196,74.901,27.453,74.901,37.639ZM85.064,37.639C85.064,21.84,72.257,9.033,56.458,9.033C40.66,9.033,27.853,21.84,27.853,37.639C27.853,53.437,40.66,66.244,56.458,66.244C72.257,66.244,85.064,53.437,85.064,37.639Z"/>
  <path fill-rule="nonzero" stroke-miterlimit="4" stroke-width="2px" stroke="none" stroke-dasharray="none" fill="#000000" stroke-linejoin="round" stroke-linecap="round" stroke-opacity="1" fill-opacity="1" d="M99.178,98.802C99.178,75.208,80.052,56.082,56.458,56.082C32.865,56.082,13.738,75.208,13.738,98.802C13.738,101.608,16.013,103.883,18.819,103.883C21.626,103.883,23.901,101.608,23.901,98.802C23.901,80.821,38.477,66.244,56.458,66.244C74.439,66.244,89.016,80.821,89.016,98.802C89.016,101.608,91.291,103.883,94.097,103.883C96.903,103.883,99.178,101.608,99.178,98.802Z"/>
</g>
  <g id="Regular-M" transform="matrix(1.0,0.0,0.0,1.0,1394.6716979667467,1034.7633839142627)">  <path cx="12" stroke-opacity="1" fill="#000000" stroke-miterlimit="4" r="5" stroke-width="2px" fill-opacity="1" stroke-dasharray="none" stroke-linejoin="round" stroke-linecap="round" cy="8" fill-rule="nonzero" stroke="none" d="M75.278,37.639C75.278,48.033,66.852,56.458,56.458,56.458C46.065,56.458,37.639,48.033,37.639,37.639C37.639,27.245,46.065,18.819,56.458,18.819C66.852,18.819,75.278,27.245,75.278,37.639ZM84.687,37.639C84.687,22.048,72.049,9.41,56.458,9.41C40.868,9.41,28.229,22.048,28.229,37.639C28.229,53.229,40.868,65.868,56.458,65.868C72.049,65.868,84.687,53.229,84.687,37.639Z"/>
  <path fill="#000000" stroke-linejoin="round" stroke-opacity="1" stroke-miterlimit="4" stroke="none" stroke-dasharray="none" stroke-linecap="round" fill-opacity="1" stroke-width="2px" fill-rule="nonzero" d="M98.802,98.802C98.802,75.416,79.844,56.458,56.458,56.458C33.073,56.458,14.115,75.416,14.115,98.802C14.115,101.4,16.221,103.507,18.819,103.507C21.418,103.507,23.524,101.4,23.524,98.802C23.524,80.613,38.269,65.868,56.458,65.868C74.647,65.868,89.392,80.613,89.392,98.802C89.392,101.4,91.499,103.507,94.097,103.507C96.696,103.507,98.802,101.4,98.802,98.802Z"/>
</g>
  <g id="Light-M" transform="matrix(1.0,0.0,0.0,1.0,1097.961697966747,1034.7633839142627)">  <path r="5" stroke="none" stroke-opacity="1" stroke-linecap="round" cy="8" fill-rule="nonzero" stroke-dasharray="none" cx="12" stroke-miterlimit="4" stroke-linejoin="round" fill="#000000" stroke-width="2px" fill-opacity="1" d="M76.532,37.639C76.532,48.725,67.545,57.713,56.458,57.713C45.372,57.713,36.384,48.725,36.384,37.639C36.384,26.552,45.372,17.565,56.458,17.565C67.545,17.565,76.532,26.552,76.532,37.639ZM83.433,37.639C83.433,22.741,71.356,10.664,56.458,10.664C41.561,10.664,29.484,22.741,29.484,37.639C29.484,52.536,41.561,64.613,56.458,64.613C71.356,64.613,83.433,52.536,83.433,37.639Z"/>
  <path fill-opacity="1" fill="#000000" stroke-linecap="round" stroke-linejoin="round" stroke-dasharray="none" stroke-miterlimit="4" stroke-opacity="1" fill-rule="nonzero" stroke-width="2px" stroke="none" d="M97.547,98.802C97.547,76.109,79.151,57.713,56.458,57.713C33.765,57.713,15.369,76.109,15.369,98.802C15.369,100.708,16.914,102.252,18.819,102.252C20.725,102.252,22.27,100.708,22.27,98.802C22.27,79.92,37.576,64.613,56.458,64.613C75.34,64.613,90.647,79.92,90.647,98.802C90.647,100.708,92.192,102.252,94.097,102.252C96.003,102.252,97.547,100.708,97.547,98.802Z"/>
</g>
  <g id="Thin-M" transform="matrix(1.0,0.0,0.0,1.0,801.2516979667469,1034.7633839142627)">  <path fill-rule="nonzero" stroke-miterlimit="4" stroke-linejoin="round" fill-opacity="1" stroke="none" cy="8" cx="12" stroke-dasharray="none" stroke-linecap="round" r="5" stroke-opacity="1" stroke-width="2px" fill="#000000" d="M77.787,37.639C77.787,49.418,68.238,58.968,56.458,58.968C44.679,58.968,35.13,49.418,35.13,37.639C35.13,25.859,44.679,16.31,56.458,16.31C68.238,16.31,77.787,25.859,77.787,37.639ZM82.178,37.639C82.178,23.434,70.663,11.919,56.458,11.919C42.254,11.919,30.738,23.434,30.738,37.639C30.738,51.844,42.254,63.359,56.458,63.359C70.663,63.359,82.178,51.844,82.178,37.639Z"/>
  <path stroke="none" stroke-linecap="round" stroke-miterlimit="4" stroke-opacity="1" stroke-linejoin="round" fill-rule="nonzero" fill-opacity="1" stroke-width="2px" fill="#000000" stroke-dasharray="none" d="M96.293,98.802C96.293,76.802,78.458,58.968,56.458,58.968C34.458,58.968,16.624,76.802,16.624,98.802C16.624,100.015,17.607,100.998,18.819,100.998C20.032,100.998,21.015,100.015,21.015,98.802C21.015,79.227,36.884,63.359,56.458,63.359C76.033,63.359,91.902,79.227,91.902,98.802C91.902,100.015,92.885,100.998,94.097,100.998C95.31,100.998,96.293,100.015,96.293,98.802Z"/>
</g>
  <g id="Ultralight-M" transform="matrix(1.0,0.0,0.0,1.0,504.5416979667468,1034.7633839142627)">  <path stroke="none" stroke-linecap="round" stroke-dasharray="none" stroke-miterlimit="4" cx="12" r="5" cy="8" stroke-width="2px" stroke-opacity="1" stroke-linejoin="round" fill-opacity="1" fill="#000000" fill-rule="nonzero" d="M79.042,37.639C79.042,50.111,68.931,60.222,56.458,60.222C43.986,60.222,33.875,50.111,33.875,37.639C33.875,25.166,43.986,15.056,56.458,15.056C68.931,15.056,79.042,25.166,79.042,37.639ZM80.924,37.639C80.924,24.127,69.97,13.174,56.458,13.174C42.947,13.174,31.993,24.127,31.993,37.639C31.993,51.151,42.947,62.104,56.458,62.104C69.97,62.104,80.924,51.151,80.924,37.639Z"/>
  <path stroke-opacity="1" stroke="none" fill-rule="nonzero" stroke-miterlimit="4" fill="#000000" stroke-width="2px" stroke-dasharray="none" stroke-linecap="round" fill-opacity="1" stroke-linejoin="round" d="M95.038,98.802C95.038,77.495,77.765,60.222,56.458,60.222C35.151,60.222,17.878,77.495,17.878,98.802C17.878,99.322,18.3,99.743,18.819,99.743C19.339,99.743,19.76,99.322,19.76,98.802C19.76,78.534,36.191,62.104,56.458,62.104C76.726,62.104,93.156,78.534,93.156,98.802C93.156,99.322,93.577,99.743,94.097,99.743C94.617,99.743,95.038,99.322,95.038,98.802Z"/>
</g>
  <g id="Black-S" transform="matrix(1.0,0.0,0.0,1.0,2890.4731495079627,616.916823843149)">  <path stroke-linejoin="round" fill="#000000" stroke-dasharray="none" r="5" stroke="none" stroke-width="2px" stroke-miterlimit="4" fill-opacity="1" cy="8" stroke-linecap="round" stroke-opacity="1" fill-rule="nonzero" cx="12" d="M57.469,29.471C57.469,36.796,51.531,42.733,44.207,42.733C36.882,42.733,30.945,36.796,30.945,29.471C30.945,22.147,36.882,16.209,44.207,16.209C51.531,16.209,57.469,22.147,57.469,29.471ZM67.784,29.471C67.784,16.45,57.228,5.894,44.207,5.894C31.186,5.894,20.63,16.45,20.63,29.471C20.63,42.492,31.186,53.048,44.207,53.048C57.228,53.048,67.784,42.492,67.784,29.471Z"/>
  <path stroke-linecap="round" stroke-width="2px" stroke-linejoin="round" stroke-miterlimit="4" stroke-opacity="1" fill="#000000" fill-rule="nonzero" stroke="none" fill-opacity="1" stroke-dasharray="none" d="M78.836,77.362C78.836,58.237,63.332,42.733,44.207,42.733C25.082,42.733,9.578,58.237,9.578,77.362C9.578,80.21,11.887,82.519,14.736,82.519C17.584,82.519,19.893,80.21,19.893,77.362C19.893,63.934,30.779,53.048,44.207,53.048C57.635,53.048,68.521,63.934,68.521,77.362C68.521,80.21,70.83,82.519,73.678,82.519C76.526,82.519,78.836,80.21,78.836,77.362Z"/>
</g>
  <g id="Heavy-S" transform="matrix(1.0,0.0,0.0,1.0,2593.7631495079627,616.916823843149)">  <path cx="12" stroke-width="2px" stroke="none" stroke-dasharray="none" fill="#000000" fill-opacity="1" stroke-linejoin="round" r="5" fill-rule="nonzero" stroke-miterlimit="4" stroke-opacity="1" cy="8" stroke-linecap="round" d="M57.764,29.471C57.764,36.958,51.694,43.028,44.207,43.028C36.72,43.028,30.65,36.958,30.65,29.471C30.65,21.984,36.72,15.914,44.207,15.914C51.694,15.914,57.764,21.984,57.764,29.471ZM67.489,29.471C67.489,16.613,57.065,6.189,44.207,6.189C31.348,6.189,20.925,16.613,20.925,29.471C20.925,42.33,31.348,52.754,44.207,52.754C57.065,52.754,67.489,42.33,67.489,29.471Z"/>
  <path stroke-linejoin="round" stroke-width="2px" fill-rule="nonzero" stroke-opacity="1" stroke-miterlimit="4" stroke-linecap="round" stroke-dasharray="none" stroke="none" fill="#000000" fill-opacity="1" d="M78.541,77.362C78.541,58.4,63.169,43.028,44.207,43.028C25.245,43.028,9.873,58.4,9.873,77.362C9.873,80.048,12.05,82.225,14.736,82.225C17.421,82.225,19.598,80.048,19.598,77.362C19.598,63.771,30.616,52.754,44.207,52.754C57.798,52.754,68.815,63.771,68.815,77.362C68.815,80.048,70.992,82.225,73.678,82.225C76.364,82.225,78.541,80.048,78.541,77.362Z"/>
</g>
  <g id="Bold-S" transform="matrix(1.0,0.0,0.0,1.0,2297.0531495079626,616.916823843149)">  <path cx="12" stroke-miterlimit="4" fill-opacity="1" stroke-dasharray="none" cy="8" stroke-linecap="round" stroke="none" stroke-linejoin="round" fill="#000000" r="5" fill-rule="nonzero" stroke-opacity="1" stroke-width="2px" d="M58.058,29.471C58.058,37.121,51.857,43.323,44.207,43.323C36.557,43.323,30.355,37.121,30.355,29.471C30.355,21.821,36.557,15.62,44.207,15.62C51.857,15.62,58.058,21.821,58.058,29.471ZM67.194,29.471C67.194,16.776,56.903,6.484,44.207,6.484C31.511,6.484,21.219,16.776,21.219,29.471C21.219,42.167,31.511,52.459,44.207,52.459C56.903,52.459,67.194,42.167,67.194,29.471Z"/>
  <path stroke-width="2px" fill-rule="nonzero" stroke-linecap="round" fill="#000000" stroke-miterlimit="4" stroke-linejoin="round" stroke-dasharray="none" stroke-opacity="1" fill-opacity="1" stroke="none" d="M78.246,77.362C78.246,58.563,63.006,43.323,44.207,43.323C25.407,43.323,10.168,58.563,10.168,77.362C10.168,79.885,12.213,81.93,14.736,81.93C17.258,81.93,19.304,79.885,19.304,77.362C19.304,63.608,30.453,52.459,44.207,52.459C57.961,52.459,69.11,63.608,69.11,77.362C69.11,79.885,71.155,81.93,73.678,81.93C76.201,81.93,78.246,79.885,78.246,77.362Z"/>
</g>
  <g id="Semibold-S" transform="matrix(1.0,0.0,0.0,1.0,2000.3431495079626,616.916823843149)">  <path stroke-linecap="round" fill-opacity="1" stroke-miterlimit="4" r="5" cy="8" cx="12" stroke="none" fill="#000000" stroke-dasharray="none" fill-rule="nonzero" stroke-opacity="1" stroke-linejoin="round" stroke-width="2px" d="M58.353,29.471C58.353,37.284,52.02,43.617,44.207,43.617C36.394,43.617,30.061,37.284,30.061,29.471C30.061,21.659,36.394,15.325,44.207,15.325C52.02,15.325,58.353,21.659,58.353,29.471ZM66.9,29.471C66.9,16.938,56.74,6.778,44.207,6.778C31.674,6.778,21.514,16.938,21.514,29.471C21.514,42.004,31.674,52.164,44.207,52.164C56.74,52.164,66.9,42.004,66.9,29.471Z"/>
  <path stroke="none" fill="#000000" stroke-dasharray="none" stroke-miterlimit="4" stroke-linejoin="round" fill-rule="nonzero" fill-opacity="1" stroke-opacity="1" stroke-linecap="round" stroke-width="2px" d="M77.951,77.362C77.951,58.725,62.843,43.617,44.207,43.617C25.57,43.617,10.462,58.725,10.462,77.362C10.462,79.722,12.376,81.635,14.736,81.635C17.096,81.635,19.009,79.722,19.009,77.362C19.009,63.446,30.29,52.164,44.207,52.164C58.123,52.164,69.405,63.446,69.405,77.362C69.405,79.722,71.318,81.635,73.678,81.635C76.038,81.635,77.951,79.722,77.951,77.362Z"/>
</g>
  <g id="Medium-S" transform="matrix(1.0,0.0,0.0,1.0,1703.6331495079626,616.916823843149)">  <path fill="#000000" stroke-width="2px" cx="12" cy="8" stroke-linejoin="round" stroke-miterlimit="4" r="5" stroke-linecap="round" stroke-opacity="1" fill-opacity="1" stroke="none" fill-rule="nonzero" stroke-dasharray="none" d="M58.648,29.471C58.648,37.447,52.182,43.912,44.207,43.912C36.231,43.912,29.766,37.447,29.766,29.471C29.766,21.496,36.231,15.03,44.207,15.03C52.182,15.03,58.648,21.496,58.648,29.471ZM66.605,29.471C66.605,17.101,56.577,7.073,44.207,7.073C31.837,7.073,21.809,17.101,21.809,29.471C21.809,41.841,31.837,51.869,44.207,51.869C56.577,51.869,66.605,41.841,66.605,29.471Z"/>
  <path fill-rule="nonzero" stroke-miterlimit="4" stroke-width="2px" stroke="none" stroke-dasharray="none" fill="#000000" stroke-linejoin="round" stroke-linecap="round" stroke-opacity="1" fill-opacity="1" d="M77.657,77.362C77.657,58.888,62.681,43.912,44.207,43.912C25.733,43.912,10.757,58.888,10.757,77.362C10.757,79.559,12.538,81.341,14.736,81.341C16.933,81.341,18.714,79.559,18.714,77.362C18.714,63.283,30.128,51.869,44.207,51.869C58.286,51.869,69.699,63.283,69.699,77.362C69.699,79.559,71.481,81.341,73.678,81.341C75.875,81.341,77.657,79.559,77.657,77.362Z"/>
</g>
  <g id="Regular-S" transform="matrix(1.0,0.0,0.0,1.0,1406.9231495079625,616.916823843149)">  <path cx="12" stroke-opacity="1" fill="#000000" stroke-miterlimit="4" r="5" stroke-width="2px" fill-opacity="1" stroke-dasharray="none" stroke-linejoin="round" stroke-linecap="round" cy="8" fill-rule="nonzero" stroke="none" d="M58.942,29.471C58.942,37.609,52.345,44.207,44.207,44.207C36.069,44.207,29.471,37.609,29.471,29.471C29.471,21.333,36.069,14.736,44.207,14.736C52.345,14.736,58.942,21.333,58.942,29.471ZM66.31,29.471C66.31,17.264,56.414,7.368,44.207,7.368C31.999,7.368,22.103,17.264,22.103,29.471C22.103,41.679,31.999,51.575,44.207,51.575C56.414,51.575,66.31,41.679,66.31,29.471Z"/>
  <path fill="#000000" stroke-linejoin="round" stroke-opacity="1" stroke-miterlimit="4" stroke="none" stroke-dasharray="none" stroke-linecap="round" fill-opacity="1" stroke-width="2px" fill-rule="nonzero" d="M77.362,77.362C77.362,59.051,62.518,44.207,44.207,44.207C25.896,44.207,11.052,59.051,11.052,77.362C11.052,79.397,12.701,81.046,14.736,81.046C16.77,81.046,18.42,79.397,18.42,77.362C18.42,63.12,29.965,51.575,44.207,51.575C58.449,51.575,69.994,63.12,69.994,77.362C69.994,79.397,71.644,81.046,73.678,81.046C75.713,81.046,77.362,79.397,77.362,77.362Z"/>
</g>
  <g id="Light-S" transform="matrix(1.0,0.0,0.0,1.0,1110.2131495079627,616.916823843149)">  <path r="5" stroke="none" stroke-opacity="1" stroke-linecap="round" cy="8" fill-rule="nonzero" stroke-dasharray="none" cx="12" stroke-miterlimit="4" stroke-linejoin="round" fill="#000000" stroke-width="2px" fill-opacity="1" d="M59.925,29.471C59.925,38.152,52.888,45.189,44.207,45.189C35.526,45.189,28.489,38.152,28.489,29.471C28.489,20.79,35.526,13.753,44.207,13.753C52.888,13.753,59.925,20.79,59.925,29.471ZM65.328,29.471C65.328,17.806,55.872,8.35,44.207,8.35C32.542,8.35,23.086,17.806,23.086,29.471C23.086,41.136,32.542,50.592,44.207,50.592C55.872,50.592,65.328,41.136,65.328,29.471Z"/>
  <path fill-opacity="1" fill="#000000" stroke-linecap="round" stroke-linejoin="round" stroke-dasharray="none" stroke-miterlimit="4" stroke-opacity="1" fill-rule="nonzero" stroke-width="2px" stroke="none" d="M76.38,77.362C76.38,59.593,61.975,45.189,44.207,45.189C26.438,45.189,12.034,59.593,12.034,77.362C12.034,78.854,13.244,80.064,14.736,80.064C16.228,80.064,17.437,78.854,17.437,77.362C17.437,62.577,29.422,50.592,44.207,50.592C58.991,50.592,70.977,62.577,70.977,77.362C70.977,78.854,72.186,80.064,73.678,80.064C75.17,80.064,76.38,78.854,76.38,77.362Z"/>
</g>
  <g id="Thin-S" transform="matrix(1.0,0.0,0.0,1.0,813.5031495079628,616.916823843149)">  <path fill-rule="nonzero" stroke-miterlimit="4" stroke-linejoin="round" fill-opacity="1" stroke="none" cy="8" cx="12" stroke-dasharray="none" stroke-linecap="round" r="5" stroke-opacity="1" stroke-width="2px" fill="#000000" d="M60.907,29.471C60.907,38.695,53.43,46.172,44.207,46.172C34.983,46.172,27.506,38.695,27.506,29.471C27.506,20.248,34.983,12.771,44.207,12.771C53.43,12.771,60.907,20.248,60.907,29.471ZM64.346,29.471C64.346,18.349,55.329,9.333,44.207,9.333C33.085,9.333,24.068,18.349,24.068,29.471C24.068,40.594,33.085,49.61,44.207,49.61C55.329,49.61,64.346,40.594,64.346,29.471Z"/>
  <path stroke="none" stroke-linecap="round" stroke-miterlimit="4" stroke-opacity="1" stroke-linejoin="round" fill-rule="nonzero" fill-opacity="1" stroke-width="2px" fill="#000000" stroke-dasharray="none" d="M75.397,77.362C75.397,60.136,61.433,46.172,44.207,46.172C26.981,46.172,13.016,60.136,13.016,77.362C13.016,78.311,13.786,79.081,14.736,79.081C15.685,79.081,16.455,78.311,16.455,77.362C16.455,62.035,28.88,49.61,44.207,49.61C59.534,49.61,71.959,62.035,71.959,77.362C71.959,78.311,72.729,79.081,73.678,79.081C74.628,79.081,75.397,78.311,75.397,77.362Z"/>
</g>
  <g id="Ultralight-S" transform="matrix(1.0,0.0,0.0,1.0,516.7931495079628,616.916823843149)">  <path stroke="none" stroke-linecap="round" stroke-dasharray="none" stroke-miterlimit="4" cx="12" r="5" cy="8" stroke-width="2px" stroke-opacity="1" stroke-linejoin="round" fill-opacity="1" fill="#000000" fill-rule="nonzero" d="M61.89,29.471C61.89,39.237,53.973,47.154,44.207,47.154C34.441,47.154,26.524,39.237,26.524,29.471C26.524,19.705,34.441,11.788,44.207,11.788C53.973,11.788,61.89,19.705,61.89,29.471ZM63.363,29.471C63.363,18.892,54.787,10.315,44.207,10.315C33.627,10.315,25.051,18.892,25.051,29.471C25.051,40.051,33.627,48.628,44.207,48.628C54.787,48.628,63.363,40.051,63.363,29.471Z"/>
  <path stroke-opacity="1" stroke="none" fill-rule="nonzero" stroke-miterlimit="4" fill="#000000" stroke-width="2px" stroke-dasharray="none" stroke-linecap="round" fill-opacity="1" stroke-linejoin="round" d="M74.415,77.362C74.415,60.679,60.89,47.154,44.207,47.154C27.523,47.154,13.999,60.679,13.999,77.362C13.999,77.769,14.329,78.099,14.736,78.099C15.143,78.099,15.472,77.769,15.472,77.362C15.472,61.492,28.337,48.628,44.207,48.628C60.076,48.628,72.941,61.492,72.941,77.362C72.941,77.769,73.271,78.099,73.678,78.099C74.085,78.099,74.415,77.769,74.415,77.362Z"/>
</g>
 </g>
</svg>
