<?xml version="1.0" encoding="utf-8"?>
<svg viewBox="0 0 65 65" xmlns="http://www.w3.org/2000/svg">
  <path d="M 79.218 222.091 L 79.218 223.011 L 76.478 223.011 L 76.478 230.621 L 75.358 230.621 L 75.358 223.011 L 72.628 223.011 L 72.628 222.091 L 79.218 222.091 ZM 85.308 225.761 L 85.308 226.681 L 81.618 226.681 L 81.618 229.701 L 85.908 229.701 L 85.908 230.621 L 80.488 230.621 L 80.488 222.091 L 85.848 222.091 L 85.848 223.011 L 81.618 223.011 L 81.618 225.761 L 85.308 225.761 ZM 89.818 226.821 C 88.858 226.541 88.158 226.198 87.718 225.791 C 87.278 225.391 87.058 224.894 87.058 224.301 C 87.058 223.628 87.325 223.071 87.858 222.631 C 88.398 222.191 89.098 221.971 89.958 221.971 C 90.545 221.971 91.068 222.084 91.528 222.311 C 91.982 222.538 92.335 222.851 92.588 223.251 C 92.842 223.651 92.968 224.088 92.968 224.561 L 91.838 224.561 C 91.838 224.041 91.675 223.634 91.348 223.341 C 91.022 223.048 90.558 222.901 89.958 222.901 C 89.405 222.901 88.972 223.021 88.658 223.261 C 88.352 223.508 88.198 223.848 88.198 224.281 C 88.198 224.628 88.345 224.921 88.638 225.161 C 88.932 225.401 89.432 225.621 90.138 225.821 C 90.852 226.021 91.408 226.241 91.808 226.481 C 92.208 226.721 92.505 227.001 92.698 227.321 C 92.892 227.641 92.988 228.018 92.988 228.451 C 92.988 229.144 92.718 229.698 92.178 230.111 C 91.638 230.531 90.918 230.741 90.018 230.741 C 89.432 230.741 88.885 230.628 88.378 230.401 C 87.865 230.174 87.472 229.868 87.198 229.481 C 86.925 229.088 86.788 228.644 86.788 228.151 L 87.918 228.151 C 87.918 228.664 88.108 229.071 88.488 229.371 C 88.868 229.671 89.378 229.821 90.018 229.821 C 90.612 229.821 91.065 229.698 91.378 229.451 C 91.698 229.211 91.858 228.881 91.858 228.461 C 91.858 228.048 91.712 227.724 91.418 227.491 C 91.125 227.264 90.592 227.041 89.818 226.821 ZM 100.317 222.091 L 100.317 223.011 L 97.577 223.011 L 97.577 230.621 L 96.457 230.621 L 96.457 223.011 L 93.727 223.011 L 93.727 222.091 L 100.317 222.091 ZM 108.148 222.091 L 108.148 230.621 L 107.018 230.621 L 102.718 224.051 L 102.718 230.621 L 101.588 230.621 L 101.588 222.091 L 102.718 222.091 L 107.028 228.691 L 107.028 222.091 L 108.148 222.091 ZM 114.962 225.761 L 114.962 226.681 L 111.272 226.681 L 111.272 229.701 L 115.562 229.701 L 115.562 230.621 L 110.142 230.621 L 110.142 222.091 L 115.502 222.091 L 115.502 223.011 L 111.272 223.011 L 111.272 225.761 L 114.962 225.761 ZM 122.97 222.091 L 122.97 223.011 L 120.23 223.011 L 120.23 230.621 L 119.11 230.621 L 119.11 223.011 L 116.38 223.011 L 116.38 222.091 L 122.97 222.091 Z" transform="matrix(0.7071060538291931, -0.7071070075035095, 0.7071070075035095, 0.7071060538291931, -196.80145263671875, -58.50666427612305)" style="fill: rgba(128, 128, 128, 0.25); text-transform: uppercase; white-space: pre;"/>
</svg>