<?xml version="1.0" encoding="UTF-8" standalone="no"?>
<!-- Generator: Adobe Illustrator 25.2.3, SVG Export Plug-In . SVG Version: 6.00 Build 0)  -->

<svg
   version="1.1"
   id="Layer_7_copy"
   x="0px"
   y="0px"
   viewBox="0 0 24 24"
   xml:space="preserve"
   sodipodi:docname="bucket_noto _wireframe.svg"
   inkscape:version="1.2.2 (b0a8486, 2022-12-01)"
   width="24"
   height="24"
   xmlns:inkscape="http://www.inkscape.org/namespaces/inkscape"
   xmlns:sodipodi="http://sodipodi.sourceforge.net/DTD/sodipodi-0.dtd"
   xmlns="http://www.w3.org/2000/svg"
   xmlns:svg="http://www.w3.org/2000/svg"><defs
   id="defs42" /><sodipodi:namedview
   id="namedview40"
   pagecolor="#ffffff"
   bordercolor="#000000"
   borderopacity="0.25"
   inkscape:showpageshadow="2"
   inkscape:pageopacity="0.0"
   inkscape:pagecheckerboard="0"
   inkscape:deskcolor="#d1d1d1"
   showgrid="false"
   inkscape:zoom="10.991574"
   inkscape:cx="-14.147201"
   inkscape:cy="1.046256"
   inkscape:window-width="1474"
   inkscape:window-height="907"
   inkscape:window-x="243"
   inkscape:window-y="1465"
   inkscape:window-maximized="1"
   inkscape:current-layer="g37" />
<g
   id="g37">
	
	
	<path
   id="path10-4"
   style="display:inline;fill:none;stroke:#000000;stroke-width:0.872791;stroke-dasharray:none;stroke-opacity:1"
   d="m 12.650993,1.8082733 c -5.9803501,0 -9.4574153,0.8185416 -9.8100221,2.0858316 -0.021737,0.9093179 0.2967822,1.9506986 0.5915194,2.6848596 0,0 1.6340614,1.7384205 9.2290717,1.7384205 7.595011,0 9.193928,-1.5672719 9.427835,-1.8291078 C 22.412023,5.67838 22.460439,4.7593846 22.461012,3.8941121 22.108404,2.6268235 18.631338,1.8082808 12.650988,1.8082808 Z"
   sodipodi:nodetypes="cccscccc" /><path
   style="display:inline;fill:none;fill-opacity:1;stroke:#000000;stroke-width:0.872791;stroke-dasharray:none;stroke-opacity:1"
   d="M 4.1854516,7.0357413 5.5618004,19.270824 c 0.1396463,1.534364 2.9449206,3.503093 7.1517626,3.503093 4.206845,0 6.977207,-1.844792 7.151764,-3.503093 L 21.237585,7.0749479 c -1.106578,0.5418121 -3.497269,1.2365664 -8.557431,1.2365664 -5.0300746,0 -7.4369196,-0.7607526 -8.4947024,-1.275773 z"
   id="path2-0" />
	
	
	
<path
   style="display:inline;fill:none;fill-opacity:1;stroke:#000000;stroke-width:0.872791;stroke-linecap:round;stroke-linejoin:round;stroke-dasharray:none;stroke-opacity:1"
   d="m 3.9643345,7.4911299 c 0,0 -4.45003255,3.5638751 -2.0058291,6.2141371 C 4.4027086,16.355527 14.46875,8.6307445 14.46875,8.6307445"
   id="path1344"
   sodipodi:nodetypes="czc" /><path
   style="fill:none;fill-opacity:1;stroke:#000000;stroke-width:1;stroke-linecap:round;stroke-linejoin:round;stroke-dasharray:none;stroke-opacity:1"
   d="M 5.2208587,4.6987728 C 10.389509,6.1084047 14.357362,6.0039875 19.995888,4.8553986"
   id="path4291"
   sodipodi:nodetypes="cc" /></g>
</svg>
