<?xml version="1.0" encoding="utf-8"?>
<svg id="Layer_1" xmlns="http://www.w3.org/2000/svg" viewBox="0 0 290.87 245">
  <defs>
    <style>.cls-1{fill:#fff;}.cls-2{fill:#f7931a;}.cls-3{fill:#ffee0c;}</style>
  </defs>
  <g>
    <path class="cls-2" d="M152.79,80.45l-59.6,70.71c-.94,1.11-2.25,1.83-3.68,2.06-7.59,1.24-15.49,1.35-23.51,.19C23.88,147.29-5.32,108.15,.81,66.02,6.94,23.88,46.07-5.32,88.2,.81c38.24,5.56,65.82,38.32,66.01,75.82,0,1.4-.51,2.75-1.41,3.81Z"/>
    <path class="cls-1" d="M96.54,78.51c5.05-1.59,8.67-5.28,9.15-12.34h0c.69-9.66-6.99-14.22-17.19-16.88l2.22-13.18-8.02-1.35-2.16,12.83c-2.11-.36-4.27-.68-6.42-.99l2.18-12.92-8.02-1.35-2.22,13.18c-1.74-.26-3.46-.51-5.12-.79v-.04l-11.06-1.87-1.44,8.57s5.83,.87,5.83,.98c3.25,.54,3.99,2.61,4.02,4.3l-2.53,15.07-3.54,21.04c-.32,1-1.19,2.53-3.47,2.15,.09,.11-5.83-.98-5.83-.98l-3.2,9.32,10.45,1.76c1.94,.33,3.85,.68,5.72,1.01l-2.24,13.33,8.02,1.35,2.23-13.19c2.19,.41,4.32,.79,6.4,1.14l-2.22,13.13,8.03,1.35,2.24-13.31c13.62,1.5,23.63-.31,26.94-12.78,2.67-10.04-1.36-15.4-8.71-18.53Zm-6.87,14.27c-1.67,9.97-18.55,5.97-23.98,5.05l2.97-17.67c5.44,.92,22.76,2.22,21.01,12.61Zm.46-25.55c-1.53,9.07-15.58,5.61-20.11,4.85l2.7-16.02c4.53,.76,19.01,1.71,17.41,11.17Z"/>
  </g>
  <path class="cls-3" d="M162.52,95.59l-20.32,57.99c-.23,.67,.17,1.38,.86,1.53l40,8.37c.87,.18,1.22,1.23,.65,1.9l-67.83,79.21c-.81,.95-2.34,.14-2.01-1.07l15.83-58.08c.17-.62-.19-1.26-.81-1.43l-34.18-9.59c-.82-.23-1.12-1.23-.57-1.88l66.39-78.09c.84-.99,2.42-.08,1.99,1.14Z"/>
  <g>
    <path class="cls-1" d="M198.7,157.1c-.3-.22-.6-.44-.9-.66-3.32-2.53-3.79-7.52-1.59-11.38,13.25-23.08,13.34-51.57,.15-74.78-2.19-3.88-1.7-8.87,1.63-11.38,.3-.22,.6-.44,.9-.65,3.32-2.51,8.8-.82,11.56,4.05,16.01,28.18,15.91,62.79-.2,90.84-2.78,4.85-8.25,6.49-11.55,3.96Z" style=""/>
    <path class="cls-1" d="M226.69,171.18l-.6-.44c-3.41-2.58-3.91-7.69-1.53-11.62,19.25-31.68,19.37-71.57,.21-103.43-2.36-3.95-1.85-9.07,1.58-11.63l.6-.43c3.42-2.55,8.89-.98,11.72,3.73,22.25,37.01,22.11,83.37-.26,120.19-2.84,4.69-8.31,6.21-11.71,3.64Z" style=""/>
    <path class="cls-1" d="M257.66,184.74c-.2-.15-.4-.29-.6-.44-3.42-2.57-3.92-7.68-1.47-11.59,25.3-40.14,25.46-91.39,.27-131.77-2.44-3.93-1.92-9.05,1.51-11.6,.2-.14,.4-.29,.6-.43,3.42-2.54,8.82-1.07,11.64,3.47,28.47,45.64,28.29,103.59-.32,148.97-2.84,4.51-8.23,5.95-11.64,3.38Z" style=""/>
  </g>
</svg>